<svg width="125" height="24" viewBox="0 0 125 24" fill="none" xmlns="http://www.w3.org/2000/svg">
<g clip-path="url(#clip0_3527_44798)">
<path d="M55.1909 7.03601V18.3402H49.0586V12.6855H42.9263V18.3402H49.0586L55.0271 24H36.7939V7.03601H55.1909Z" fill="#6046F6"/>
<path d="M116.519 12.6855V24H110.387V12.6855H104.249V24H98.1167V12.6855H91.9844V7.03601H110.545L116.508 12.6855H116.519Z" fill="#6046F6"/>
<path d="M30.6675 1.38135H24.5352V24H30.6675V1.38135Z" fill="#6046F6"/>
<path d="M79.7202 7.03601V24H79.5618L73.5933 18.3402V12.6855H67.461V18.3402H73.5933V24H61.3232V7.03601H79.7202Z" fill="#6046F6"/>
<path d="M91.9849 12.6855V24H85.8525V7.03601H86.0218L91.9849 12.6855Z" fill="#6046F6"/>
<path d="M12.2646 12.6855L18.2277 7.03601H0V24H18.4024V12.6855H12.2701H12.2646ZM6.13232 18.3402V12.6855H12.0954L8.19099 16.3846H12.2646V18.3453H6.13232V18.3402Z" fill="#6046F6"/>
<path d="M119.911 0L121.134 3.66286L125 4.82173L121.134 5.9806L119.911 9.64346L118.687 5.9806L114.821 4.82173L118.687 3.66286L119.911 0Z" fill="#6046F6"/>
</g>
<defs>
<clipPath id="clip0_3527_44798">
<rect width="125" height="24" fill="white"/>
</clipPath>
</defs>
</svg>
